REM DIRINDEX 1\2,1\4,1\5,1\6,1\7,1\3\8,1\3\9,1\3\10
REM DIRNAME cjc113,folder01,folder02,folder03,folder04,folder05,folder06,folder07,folder08,folder09
TITLE ""
FILE "DB4500_5th_2A_40.mp3" MP3
  TRACK 01 AUDIO
    TITLE "8:cjc113_1503"
    INDEX 01 00:00:00
  TRACK 02 AUDIO
    TITLE "0:"
    INDEX 01 00:01:11
  TRACK 03 AUDIO
    TITLE "9:cjc113_1504"
    INDEX 01 00:01:38
  TRACK 04 AUDIO
    TITLE "0:"
    INDEX 01 00:02:69
  TRACK 05 AUDIO
    TITLE "10:cjc113_1505"
    INDEX 01 00:03:15
  TRACK 06 AUDIO
    TITLE "0:"
    INDEX 01 00:06:10
  TRACK 07 AUDIO
    TITLE "8:cjc113_1506"
    INDEX 01 00:06:57
  TRACK 08 AUDIO
    TITLE "0:"
    INDEX 01 00:08:03
  TRACK 09 AUDIO
    TITLE "9:cjc113_1507"
    INDEX 01 00:08:23
  TRACK 10 AUDIO
    TITLE "0:"
    INDEX 01 00:09:57
  TRACK 11 AUDIO
    TITLE "10:cjc113_1508"
    INDEX 01 00:10:06
  TRACK 12 AUDIO
    TITLE "0:"
    INDEX 01 00:13:00
  TRACK 13 AUDIO
    TITLE "8:cjc113_1509"
    INDEX 01 00:13:47
  TRACK 14 AUDIO
    TITLE "0:"
    INDEX 01 00:14:56
  TRACK 15 AUDIO
    TITLE "9:cjc113_1510"
    INDEX 01 00:15:03
  TRACK 16 AUDIO
    TITLE "0:"
    INDEX 01 00:16:32
  TRACK 17 AUDIO
    TITLE "10:cjc113_1511"
    INDEX 01 00:16:55
  TRACK 18 AUDIO
    TITLE "0:"
    INDEX 01 00:20:00
  TRACK 19 AUDIO
    TITLE "8:cjc113_1512"
    INDEX 01 00:20:47
  TRACK 20 AUDIO
    TITLE "0:"
    INDEX 01 00:21:51
  TRACK 21 AUDIO
    TITLE "9:cjc113_1513"
    INDEX 01 00:21:74
  TRACK 22 AUDIO
    TITLE "0:"
    INDEX 01 00:24:24
  TRACK 23 AUDIO
    TITLE "10:cjc113_1514"
    INDEX 01 00:24:45
  TRACK 24 AUDIO
    TITLE "0:"
    INDEX 01 00:27:06
  TRACK 25 AUDIO
    TITLE "8:cjc113_1515"
    INDEX 01 00:27:53
  TRACK 26 AUDIO
    TITLE "0:"
    INDEX 01 00:29:03
  TRACK 27 AUDIO
    TITLE "9:cjc113_1516"
    INDEX 01 00:29:25
  TRACK 28 AUDIO
    TITLE "0:"
    INDEX 01 00:30:48
  TRACK 29 AUDIO
    TITLE "10:cjc113_1517"
    INDEX 01 00:30:69
  TRACK 30 AUDIO
    TITLE "0:"
    INDEX 01 00:34:14
  TRACK 31 AUDIO
    TITLE "8:cjc113_1518"
    INDEX 01 00:34:59
  TRACK 32 AUDIO
    TITLE "0:"
    INDEX 01 00:35:68
  TRACK 33 AUDIO
    TITLE "9:cjc113_1519"
    INDEX 01 00:36:13
  TRACK 34 AUDIO
    TITLE "0:"
    INDEX 01 00:37:20
  TRACK 35 AUDIO
    TITLE "10:cjc113_1520"
    INDEX 01 00:37:46
  TRACK 36 AUDIO
    TITLE "0:"
    INDEX 01 00:40:07
  TRACK 37 AUDIO
    TITLE "8:cjc113_1521"
    INDEX 01 00:40:52
  TRACK 38 AUDIO
    TITLE "0:"
    INDEX 01 00:41:61
  TRACK 39 AUDIO
    TITLE "9:cjc113_1522"
    INDEX 01 00:42:06
  TRACK 40 AUDIO
    TITLE "0:"
    INDEX 01 00:43:29
  TRACK 41 AUDIO
    TITLE "10:cjc113_1523"
    INDEX 01 00:43:52
  TRACK 42 AUDIO
    TITLE "0:"
    INDEX 01 00:46:43
  TRACK 43 AUDIO
    TITLE "8:cjc113_1524"
    INDEX 01 00:47:15
  TRACK 44 AUDIO
    TITLE "0:"
    INDEX 01 00:48:22
  TRACK 45 AUDIO
    TITLE "9:cjc113_1525"
    INDEX 01 00:48:48
  TRACK 46 AUDIO
    TITLE "0:"
    INDEX 01 00:49:69
  TRACK 47 AUDIO
    TITLE "10:cjc113_1526"
    INDEX 01 00:50:15
  TRACK 48 AUDIO
    TITLE "0:"
    INDEX 01 00:53:27
  TRACK 49 AUDIO
    TITLE "8:cjc113_1527"
    INDEX 01 00:53:74
  TRACK 50 AUDIO
    TITLE "0:"
    INDEX 01 00:55:24
  TRACK 51 AUDIO
    TITLE "9:cjc113_1528"
    INDEX 01 00:55:42
  TRACK 52 AUDIO
    TITLE "0:"
    INDEX 01 00:56:49
  TRACK 53 AUDIO
    TITLE "10:cjc113_1529"
    INDEX 01 00:56:72
  TRACK 54 AUDIO
    TITLE "0:"
    INDEX 01 01:01:19
  TRACK 55 AUDIO
    TITLE "8:cjc113_1530"
    INDEX 01 01:01:68
  TRACK 56 AUDIO
    TITLE "0:"
    INDEX 01 01:03:10
  TRACK 57 AUDIO
    TITLE "9:cjc113_1531"
    INDEX 01 01:03:29
  TRACK 58 AUDIO
    TITLE "0:"
    INDEX 01 01:04:41
  TRACK 59 AUDIO
    TITLE "10:cjc113_1532"
    INDEX 01 01:04:66
  TRACK 60 AUDIO
    TITLE "0:"
    INDEX 01 01:09:38
  TRACK 61 AUDIO
    TITLE "8:cjc113_1533"
    INDEX 01 01:10:06
  TRACK 62 AUDIO
    TITLE "0:"
    INDEX 01 01:11:09
  TRACK 63 AUDIO
    TITLE "9:cjc113_1534"
    INDEX 01 01:11:33
  TRACK 64 AUDIO
    TITLE "0:"
    INDEX 01 01:12:56
  TRACK 65 AUDIO
    TITLE "10:cjc113_1535"
    INDEX 01 01:13:02
  TRACK 66 AUDIO
    TITLE "0:"
    INDEX 01 01:16:42
  TRACK 67 AUDIO
    TITLE "10:cjc113_1536"
    INDEX 01 01:17:24
  TRACK 68 AUDIO
    TITLE "0:"
    INDEX 01 01:20:51
  TRACK 69 AUDIO
    TITLE "8:cjc113_1537"
    INDEX 01 01:21:25
  TRACK 70 AUDIO
    TITLE "0:"
    INDEX 01 01:22:42
  TRACK 71 AUDIO
    TITLE "9:cjc113_1538"
    INDEX 01 01:22:64
  TRACK 72 AUDIO
    TITLE "0:"
    INDEX 01 01:24:39
  TRACK 73 AUDIO
    TITLE "10:cjc113_1539"
    INDEX 01 01:24:63
  TRACK 74 AUDIO
    TITLE "0:"
    INDEX 01 01:27:65
